<svg width="16" height="16" viewBox="0 0 16 16" fill="none" xmlns="http://www.w3.org/2000/svg">
<path d="M8 0.125C6.44248 0.125 4.91992 0.586861 3.62489 1.45218C2.32985 2.31749 1.32049 3.5474 0.724452 4.98637C0.128412 6.42534 -0.0275392 8.00874 0.276319 9.53634C0.580178 11.0639 1.3302 12.4671 2.43154 13.5685C3.53288 14.6698 4.93607 15.4198 6.46367 15.7237C7.99127 16.0275 9.57467 15.8716 11.0136 15.2756C12.4526 14.6795 13.6825 13.6702 14.5478 12.3751C15.4131 11.0801 15.875 9.55753 15.875 8C15.875 5.91142 15.0453 3.90838 13.5685 2.43153C12.0916 0.954685 10.0886 0.125 8 0.125V0.125ZM8 14.75C6.66498 14.75 5.35994 14.3541 4.2499 13.6124C3.13987 12.8707 2.27471 11.8165 1.76382 10.5831C1.25293 9.34971 1.11925 7.99251 1.3797 6.68314C1.64015 5.37377 2.28303 4.17103 3.22703 3.22703C4.17104 2.28302 5.37377 1.64015 6.68314 1.3797C7.99252 1.11925 9.34972 1.25292 10.5831 1.76381C11.8165 2.2747 12.8707 3.13987 13.6124 4.2499C14.3541 5.35993 14.75 6.66498 14.75 8C14.75 9.79021 14.0388 11.5071 12.773 12.773C11.5071 14.0388 9.79022 14.75 8 14.75Z" fill="#DC2626"/>
<path d="M7.4375 3.5H8.5625V9.6875H7.4375V3.5ZM8 11.375C7.83312 11.375 7.66999 11.4245 7.53124 11.5172C7.39248 11.6099 7.28434 11.7417 7.22048 11.8959C7.15662 12.05 7.13991 12.2197 7.17246 12.3834C7.20502 12.547 7.28538 12.6974 7.40338 12.8154C7.52138 12.9334 7.67172 13.0137 7.83539 13.0463C7.99906 13.0788 8.16871 13.0621 8.32289 12.9983C8.47706 12.9344 8.60884 12.8263 8.70155 12.6875C8.79426 12.5488 8.84375 12.3856 8.84375 12.2188C8.84375 11.995 8.75486 11.7804 8.59662 11.6221C8.43839 11.4639 8.22378 11.375 8 11.375Z" fill="#DC2626"/>
</svg>
