<svg width="16" height="19" viewBox="0 0 16 19" fill="none" xmlns="http://www.w3.org/2000/svg">
<path d="M7.4542 0.153203C7.34599 0.0523726 7.20287 -0.00252028 7.05499 8.89321e-05C6.90711 0.00269814 6.76601 0.0626057 6.66142 0.167191C6.55684 0.271775 6.49693 0.412872 6.49432 0.560754C6.49171 0.708637 6.54661 0.851759 6.64744 0.959968L7.94739 2.26069C3.55357 2.28961 0 5.86068 0 10.2614C0 14.6803 3.58249 18.2628 8.00143 18.2628C12.3519 18.2628 15.891 14.7907 15.9998 10.4661C16.0017 10.3911 15.9888 10.3165 15.9619 10.2465C15.935 10.1766 15.8945 10.1126 15.8429 10.0582C15.7912 10.0039 15.7293 9.96023 15.6608 9.92979C15.5923 9.89935 15.5184 9.8827 15.4435 9.88081C15.3685 9.87891 15.2939 9.89179 15.2239 9.91872C15.1539 9.94566 15.0899 9.98611 15.0356 10.0378C14.9812 10.0894 14.9376 10.1513 14.9072 10.2198C14.8767 10.2884 14.8601 10.3622 14.8582 10.4372C14.8238 11.7845 14.3932 13.0919 13.6203 14.196C12.8473 15.3001 11.7663 16.1521 10.512 16.6456C9.25782 17.139 7.88604 17.252 6.56797 16.9705C5.2499 16.6891 4.04395 16.0255 3.10071 15.0628C2.15747 14.1001 1.51872 12.8808 1.26423 11.5573C1.00975 10.2337 1.15079 8.86455 1.66975 7.62068C2.18872 6.37681 3.06261 5.31338 4.1823 4.56316C5.302 3.81295 6.61789 3.4092 7.96566 3.40233L6.64744 4.72056C6.59135 4.77282 6.54637 4.83583 6.51517 4.90585C6.48397 4.97588 6.4672 5.05146 6.46584 5.12811C6.46449 5.20475 6.47859 5.28088 6.5073 5.35196C6.53601 5.42304 6.57874 5.48761 6.63295 5.54181C6.68715 5.59602 6.75172 5.63875 6.8228 5.66746C6.89387 5.69617 6.97 5.71027 7.04665 5.70891C7.12329 5.70756 7.19888 5.69078 7.2689 5.65959C7.33892 5.62839 7.40194 5.5834 7.4542 5.52732L9.7375 3.24402C9.84439 3.137 9.90444 2.99191 9.90444 2.84064C9.90444 2.68937 9.84439 2.54429 9.7375 2.43726L7.4542 0.153203ZM11.2597 7.76495C11.3666 7.87198 11.4266 8.01706 11.4266 8.16833C11.4266 8.3196 11.3666 8.46469 11.2597 8.57172L7.26393 12.5675C7.1569 12.6744 7.01181 12.7344 6.86054 12.7344C6.70928 12.7344 6.56419 12.6744 6.45716 12.5675L4.74317 10.855C4.63914 10.7474 4.58153 10.6032 4.58276 10.4536C4.58399 10.3039 4.64395 10.1607 4.74974 10.0548C4.85553 9.94893 4.99867 9.88883 5.14834 9.88746C5.29801 9.88609 5.44222 9.94356 5.54993 10.0475L6.86054 11.3566L10.4529 7.76419C10.5601 7.65739 10.7052 7.59749 10.8565 7.59763C11.0077 7.59777 11.1528 7.65795 11.2597 7.76495Z" fill="black"/>
</svg>
